
<svg width="349" height="227" viewBox="0 0 349 227" fill="none" xmlns="http://www.w3.org/2000/svg">
<g clip-path="url(#clip0_2_31)">
<path d="M336 0H13C5.8203 0 0 5.8203 0 13V214C0 221.18 5.8203 227 13 227H336C343.18 227 349 221.18 349 214V13C349 5.8203 343.18 0 336 0Z" fill="black"/>
<path d="M325 141H25C19.4772 141 15 145.477 15 151V206C15 211.523 19.4772 216 25 216H325C330.523 216 335 211.523 335 206V151C335 145.477 330.523 141 325 141Z" fill="#CDCDCD"/>
<path d="M48.792 94.72V128H20.4613V27.9893H31.7253C34.456 27.9893 38.5236 27.8756 43.928 27.648C49.3324 27.3636 53.7982 27.2213 57.3253 27.2213C69.6133 27.2213 78.7724 29.9236 84.8027 35.328C90.8898 40.7324 93.9333 49.0098 93.9333 60.16C93.9333 66.7591 92.4827 72.6187 89.5813 77.7387C86.7369 82.8587 82.9538 86.9262 78.232 89.9413C80.792 90.5671 82.9822 92.0178 84.8027 94.2933C86.68 96.5689 88.1307 99.2711 89.1547 102.4C90.1787 105.472 91.0604 108.601 91.8 111.787C92.5964 114.916 93.4782 118.016 94.4453 121.088C95.4693 124.16 96.5787 126.464 97.7733 128H66.2853C65.6596 127.204 65.176 124.985 64.8347 121.344C64.4933 117.646 64.0098 113.237 63.384 108.117C62.8151 102.94 61.9902 98.6169 60.9093 95.1467C60.7956 95.1467 60.6533 95.1467 60.4827 95.1467C59.4018 95.1467 58.2356 95.1467 56.984 95.1467C55.7893 95.0898 54.7369 95.0329 53.8267 94.976C52.9164 94.9191 51.9493 94.8622 50.9253 94.8053C49.9582 94.7484 49.2471 94.72 48.792 94.72ZM48.792 78.848H51.5227C52.9449 78.848 54.1396 78.7911 55.1067 78.6773C56.0738 78.5636 57.1262 78.3644 58.264 78.08C59.4587 77.7387 60.4258 77.2267 61.1653 76.544C61.9618 75.8613 62.7013 74.9796 63.384 73.8987C64.0667 72.8178 64.5787 71.424 64.92 69.7173C65.2613 68.0107 65.432 66.0196 65.432 63.744V57.0027C65.432 52.0533 64.1236 48.6116 61.5067 46.6773C58.9467 44.6862 55.2489 43.6907 50.4133 43.6907H48.792V78.848Z" fill="white"/>
<path d="M163.719 128H103.217V27.9893H162.439L160.732 48.128L131.463 47.2747V66.56H154.503V86.528L131.463 84.8213V107.52L163.719 106.667V128Z" fill="white"/>
<path d="M199.713 128H171.467V27.9893H182.731C185.746 27.9893 190.298 27.8756 196.385 27.648C202.472 27.3636 207.478 27.2213 211.403 27.2213C222.44 27.2213 230.802 30.1511 236.491 36.0107C242.18 41.8702 245.025 50.6596 245.025 62.3787C245.025 69.4329 244.086 75.8613 242.209 81.664C240.388 87.4098 237.914 92.1316 234.785 95.8293C231.656 99.5271 228.1 102.372 224.118 104.363C220.136 106.354 215.926 107.349 211.489 107.349C210.92 107.349 210.322 107.349 209.697 107.349C209.128 107.349 208.587 107.349 208.075 107.349C207.62 107.292 207.051 107.264 206.369 107.264C205.743 107.207 205.231 107.179 204.833 107.179C204.491 107.122 203.979 107.093 203.297 107.093C202.671 107.036 202.244 107.008 202.017 107.008C201.789 107.008 201.362 106.98 200.737 106.923C200.111 106.866 199.77 106.837 199.713 106.837V128ZM217.035 58.624C217.035 54.4142 215.898 51.0009 213.622 48.384C211.346 45.7671 208.075 44.4587 203.809 44.4587H199.713V88.832H202.87C207.364 88.832 210.834 87.3244 213.281 84.3093C215.784 81.2942 217.035 76.9422 217.035 71.2533V58.624Z" fill="white"/>
<path d="M280.395 89.344C280.395 98.7876 281.106 105.358 282.529 109.056C284.008 112.754 286.568 114.603 290.209 114.603C292.882 114.603 294.902 113.948 296.267 112.64C297.633 111.275 298.657 108.516 299.339 104.363C300.079 100.153 300.449 93.8667 300.449 85.504V64.9387C300.449 56.8036 299.652 50.7449 298.059 46.7627C296.466 42.7804 293.85 40.7893 290.209 40.7893C286.568 40.7893 284.008 42.752 282.529 46.6773C281.106 50.5458 280.395 57.6284 280.395 67.9253V89.344ZM288.417 129.792C283.695 129.792 279.428 129.365 275.617 128.512C271.862 127.659 268.619 126.464 265.889 124.928C263.158 123.392 260.769 121.429 258.721 119.04C256.73 116.651 255.108 114.091 253.857 111.36C252.662 108.629 251.695 105.444 250.955 101.803C250.216 98.1049 249.704 94.4356 249.419 90.7947C249.135 87.0969 248.993 82.944 248.993 78.336C248.993 71.5093 249.334 65.5644 250.017 60.5013C250.756 55.4382 252.093 50.688 254.027 46.2507C255.962 41.7564 258.522 38.1156 261.707 35.328C264.95 32.5404 269.103 30.3502 274.166 28.7573C279.286 27.1644 285.316 26.368 292.257 26.368C297.035 26.368 301.33 26.8231 305.142 27.7333C308.954 28.5867 312.225 29.7813 314.955 31.3173C317.686 32.8533 320.047 34.8444 322.038 37.2907C324.086 39.7369 325.707 42.3538 326.902 45.1413C328.154 47.872 329.149 51.0862 329.889 54.784C330.628 58.4818 331.14 62.1511 331.425 65.792C331.709 69.4329 331.851 73.5573 331.851 78.1653C331.851 84.992 331.482 90.9369 330.742 96C330.002 101.063 328.666 105.813 326.731 110.251C324.797 114.631 322.209 118.215 318.966 121.003C315.723 123.733 311.542 125.895 306.422 127.488C301.359 129.024 295.357 129.792 288.417 129.792Z" fill="white"/>
<path d="M84.51 207H67.977L66.096 197.298H54.414L52.533 207H36.792L48.078 145.521H73.224L84.51 207ZM64.215 185.715L60.75 163.737H60.057L56.592 185.715H64.215ZM106.988 207.99C99.1336 207.99 95.2066 203.634 95.2066 194.922V159.579H112.037V190.863C112.037 192.513 112.763 193.338 114.215 193.338C116.063 193.338 117.614 192.876 118.868 191.952V159.579H135.5V206.802H119.759V203.337H119.363C115.733 206.439 111.608 207.99 106.988 207.99ZM164.784 180.369V207H148.35V159.579H162.804L163.794 162.45H164.19C165.708 160.734 167.226 159.645 168.744 159.183C170.328 158.655 172.869 158.391 176.367 158.391L175.674 174.231H171.12C168.546 174.231 166.83 174.627 165.972 175.419C165.18 176.211 164.784 177.861 164.784 180.369ZM185.522 183.141C185.522 174.429 187.172 168.126 190.472 164.232C193.838 160.338 199.052 158.391 206.114 158.391C213.242 158.391 218.423 160.305 221.657 164.133C224.891 167.961 226.508 174.264 226.508 183.042C226.508 191.754 224.924 198.09 221.756 202.05C218.588 206.01 213.407 207.99 206.213 207.99C199.019 207.99 193.772 206.01 190.472 202.05C187.172 198.09 185.522 191.787 185.522 183.141ZM209.282 173.736C208.886 172.416 207.83 171.756 206.114 171.756C204.398 171.756 203.309 172.416 202.847 173.736C202.385 175.056 202.154 177.828 202.154 182.052V184.428C202.154 189.114 202.385 192.15 202.847 193.536C203.309 194.922 204.365 195.615 206.015 195.615C207.731 195.615 208.82 194.922 209.282 193.536C209.744 192.15 209.975 189.312 209.975 185.022V182.151C209.975 177.861 209.744 175.056 209.282 173.736ZM255.02 180.369V207H238.586V159.579H253.04L254.03 162.45H254.426C255.944 160.734 257.462 159.645 258.98 159.183C260.564 158.655 263.105 158.391 266.603 158.391L265.91 174.231H261.356C258.782 174.231 257.066 174.627 256.208 175.419C255.416 176.211 255.02 177.861 255.02 180.369ZM312.29 171.954L311.795 192.447C311.795 193.701 312.092 194.559 312.686 195.021C313.346 195.417 314.435 195.615 315.953 195.615L314.468 207.594C310.64 207.858 308.528 207.99 308.132 207.99C303.248 207.99 300.146 206.307 298.826 202.941H298.331C295.889 206.307 292.127 207.99 287.045 207.99C283.151 207.99 280.148 206.736 278.036 204.228C275.99 201.72 274.967 198.288 274.967 193.932C274.967 188.454 276.65 184.659 280.016 182.547C283.448 180.435 288.827 179.049 296.153 178.389V176.013C296.153 174.165 295.229 173.241 293.381 173.241C290.213 173.241 285.263 174.198 278.531 176.112L276.056 161.658C284.504 159.48 291.533 158.391 297.143 158.391C302.753 158.391 306.68 159.48 308.924 161.658C311.168 163.836 312.29 167.268 312.29 171.954ZM293.183 196.407C295.625 196.407 296.846 195.12 296.846 192.546V187.695C294.404 188.025 292.655 188.553 291.599 189.279C290.609 189.939 290.114 191.094 290.114 192.744C290.114 195.186 291.137 196.407 293.183 196.407Z" fill="black"/>
</g>
<defs>
<clipPath id="clip0_2_31">
<rect width="349" height="227" fill="white"/>
</clipPath>
</defs>
</svg>
