
<svg width="349" height="227" viewBox="0 0 349 227" fill="none" xmlns="http://www.w3.org/2000/svg">
<g clip-path="url(#clip0_2_2)">
<path d="M336 0H13C5.8203 0 0 5.8203 0 13V214C0 221.18 5.8203 227 13 227H336C343.18 227 349 221.18 349 214V13C349 5.8203 343.18 0 336 0Z" fill="black"/>
<path d="M325 141H25C19.4772 141 15 145.477 15 151V206C15 211.523 19.4772 216 25 216H325C330.523 216 335 211.523 335 206V151C335 145.477 330.523 141 325 141Z" fill="#CDCDCD"/>
<path d="M48.792 94.72V128H20.4613V27.9893H31.7253C34.456 27.9893 38.5236 27.8756 43.928 27.648C49.3324 27.3636 53.7982 27.2213 57.3253 27.2213C69.6133 27.2213 78.7724 29.9236 84.8027 35.328C90.8898 40.7324 93.9333 49.0098 93.9333 60.16C93.9333 66.7591 92.4827 72.6187 89.5813 77.7387C86.7369 82.8587 82.9538 86.9262 78.232 89.9413C80.792 90.5671 82.9822 92.0178 84.8027 94.2933C86.68 96.5689 88.1307 99.2711 89.1547 102.4C90.1787 105.472 91.0604 108.601 91.8 111.787C92.5964 114.916 93.4782 118.016 94.4453 121.088C95.4693 124.16 96.5787 126.464 97.7733 128H66.2853C65.6596 127.204 65.176 124.985 64.8347 121.344C64.4933 117.646 64.0098 113.237 63.384 108.117C62.8151 102.94 61.9902 98.6169 60.9093 95.1467C60.7956 95.1467 60.6533 95.1467 60.4827 95.1467C59.4018 95.1467 58.2356 95.1467 56.984 95.1467C55.7893 95.0898 54.7369 95.0329 53.8267 94.976C52.9164 94.9191 51.9493 94.8622 50.9253 94.8053C49.9582 94.7484 49.2471 94.72 48.792 94.72ZM48.792 78.848H51.5227C52.9449 78.848 54.1396 78.7911 55.1067 78.6773C56.0738 78.5636 57.1262 78.3644 58.264 78.08C59.4587 77.7387 60.4258 77.2267 61.1653 76.544C61.9618 75.8613 62.7013 74.9796 63.384 73.8987C64.0667 72.8178 64.5787 71.424 64.92 69.7173C65.2613 68.0107 65.432 66.0196 65.432 63.744V57.0027C65.432 52.0533 64.1236 48.6116 61.5067 46.6773C58.9467 44.6862 55.2489 43.6907 50.4133 43.6907H48.792V78.848Z" fill="white"/>
<path d="M163.719 128H103.217V27.9893H162.439L160.732 48.128L131.463 47.2747V66.56H154.503V86.528L131.463 84.8213V107.52L163.719 106.667V128Z" fill="white"/>
<path d="M199.713 128H171.467V27.9893H182.731C185.746 27.9893 190.298 27.8756 196.385 27.648C202.472 27.3636 207.478 27.2213 211.403 27.2213C222.44 27.2213 230.802 30.1511 236.491 36.0107C242.18 41.8702 245.025 50.6596 245.025 62.3787C245.025 69.4329 244.086 75.8613 242.209 81.664C240.388 87.4098 237.914 92.1316 234.785 95.8293C231.656 99.5271 228.1 102.372 224.118 104.363C220.136 106.354 215.926 107.349 211.489 107.349C210.92 107.349 210.322 107.349 209.697 107.349C209.128 107.349 208.587 107.349 208.075 107.349C207.62 107.292 207.051 107.264 206.369 107.264C205.743 107.207 205.231 107.179 204.833 107.179C204.491 107.122 203.979 107.093 203.297 107.093C202.671 107.036 202.244 107.008 202.017 107.008C201.789 107.008 201.362 106.98 200.737 106.923C200.111 106.866 199.77 106.837 199.713 106.837V128ZM217.035 58.624C217.035 54.4142 215.898 51.0009 213.622 48.384C211.346 45.7671 208.075 44.4587 203.809 44.4587H199.713V88.832H202.87C207.364 88.832 210.834 87.3244 213.281 84.3093C215.784 81.2942 217.035 76.9422 217.035 71.2533V58.624Z" fill="white"/>
<path d="M280.395 89.344C280.395 98.7876 281.106 105.358 282.529 109.056C284.008 112.754 286.568 114.603 290.209 114.603C292.882 114.603 294.902 113.948 296.267 112.64C297.633 111.275 298.657 108.516 299.339 104.363C300.079 100.153 300.449 93.8667 300.449 85.504V64.9387C300.449 56.8036 299.652 50.7449 298.059 46.7627C296.466 42.7804 293.85 40.7893 290.209 40.7893C286.568 40.7893 284.008 42.752 282.529 46.6773C281.106 50.5458 280.395 57.6284 280.395 67.9253V89.344ZM288.417 129.792C283.695 129.792 279.428 129.365 275.617 128.512C271.862 127.659 268.619 126.464 265.889 124.928C263.158 123.392 260.769 121.429 258.721 119.04C256.73 116.651 255.108 114.091 253.857 111.36C252.662 108.629 251.695 105.444 250.955 101.803C250.216 98.1049 249.704 94.4356 249.419 90.7947C249.135 87.0969 248.993 82.944 248.993 78.336C248.993 71.5093 249.334 65.5644 250.017 60.5013C250.756 55.4382 252.093 50.688 254.027 46.2507C255.962 41.7564 258.522 38.1156 261.707 35.328C264.95 32.5404 269.103 30.3502 274.166 28.7573C279.286 27.1644 285.316 26.368 292.257 26.368C297.035 26.368 301.33 26.8231 305.142 27.7333C308.954 28.5867 312.225 29.7813 314.955 31.3173C317.686 32.8533 320.047 34.8444 322.038 37.2907C324.086 39.7369 325.707 42.3538 326.902 45.1413C328.154 47.872 329.149 51.0862 329.889 54.784C330.628 58.4818 331.14 62.1511 331.425 65.792C331.709 69.4329 331.851 73.5573 331.851 78.1653C331.851 84.992 331.482 90.9369 330.742 96C330.002 101.063 328.666 105.813 326.731 110.251C324.797 114.631 322.209 118.215 318.966 121.003C315.723 123.733 311.542 125.895 306.422 127.488C301.359 129.024 295.357 129.792 288.417 129.792Z" fill="white"/>
<path d="M59.045 163.17H48.721V205H33.502V163.17H22.555L23.445 149.731H59.935L59.045 163.17ZM116.731 162.369L111.302 205H95.0149L91.5439 187.022H90.9209L87.5389 205H71.6079L66.1789 162.369H79.8849L81.7539 183.907H82.4659L85.4919 162.369H97.8629L100.8 183.907H101.601L103.559 162.369H116.731ZM141.128 205H126.443V162.814H141.128V205ZM127.6 159.432C126.354 158.364 125.731 156.643 125.731 154.27C125.731 151.897 126.354 150.146 127.6 149.019C128.846 147.892 130.893 147.328 133.741 147.328C136.589 147.328 138.636 147.892 139.882 149.019C141.128 150.146 141.751 151.897 141.751 154.27C141.751 156.584 141.128 158.305 139.882 159.432C138.636 160.5 136.589 161.034 133.741 161.034C130.893 161.034 128.846 160.5 127.6 159.432ZM153.003 195.21V147.951H167.688V190.493C167.688 191.502 167.895 192.214 168.311 192.629C168.785 193.044 169.586 193.252 170.714 193.252L169.557 205.89H164.662C160.746 205.89 157.809 205.089 155.851 203.487C153.952 201.826 153.003 199.067 153.003 195.21ZM195.046 205H180.361V162.814H195.046V205ZM181.518 159.432C180.272 158.364 179.649 156.643 179.649 154.27C179.649 151.897 180.272 150.146 181.518 149.019C182.764 147.892 184.811 147.328 187.659 147.328C190.507 147.328 192.554 147.892 193.8 149.019C195.046 150.146 195.669 151.897 195.669 154.27C195.669 156.584 195.046 158.305 193.8 159.432C192.554 160.5 190.507 161.034 187.659 161.034C184.811 161.034 182.764 160.5 181.518 159.432ZM219.826 208.916H228.993C230.061 208.916 230.595 208.441 230.595 207.492V207.136C230.595 206.246 230.061 205.801 228.993 205.801H219.826C218.876 205.801 218.402 206.276 218.402 207.225V207.581C218.402 208.471 218.876 208.916 219.826 208.916ZM223.386 161.301H244.39V171.269H237.982V171.714C239.88 173.375 240.83 175.541 240.83 178.211C240.83 187.704 235.46 192.451 224.721 192.451H220.449C219.381 192.451 218.847 192.955 218.847 193.964C218.847 194.913 219.351 195.388 220.36 195.388H232.464C239.287 195.388 242.699 198.355 242.699 204.288C242.699 209.153 241.067 212.654 237.804 214.79C234.54 216.985 230.031 218.083 224.276 218.083C218.52 218.083 214.159 217.46 211.193 216.214C208.285 215.027 206.832 212.773 206.832 209.45C206.832 207.611 207.989 206.068 210.303 204.822V204.466C207.395 202.864 205.942 200.55 205.942 197.524C205.942 193.964 208.226 191.264 212.795 189.425C210.659 187.882 209.057 186.102 207.989 184.085C206.98 182.008 206.476 179.279 206.476 175.897C206.476 171.21 207.989 167.62 211.015 165.128C214.1 162.577 218.224 161.301 223.386 161.301ZM227.302 178.389C227.302 176.49 227.064 175.126 226.59 174.295C226.174 173.405 225.373 172.96 224.187 172.96C223 172.96 222.169 173.405 221.695 174.295C221.279 175.126 221.072 176.431 221.072 178.211C221.072 181.83 222.14 183.64 224.276 183.64C226.293 183.64 227.302 181.89 227.302 178.389ZM268.437 165.484C271.7 162.695 275.231 161.301 279.028 161.301C282.825 161.301 285.495 162.221 287.038 164.06C288.64 165.84 289.441 168.54 289.441 172.159V205H274.311V177.232C274.311 175.749 273.658 175.007 272.353 175.007C270.692 175.007 269.297 175.422 268.17 176.253V205H253.218V147.951H268.081V165.484H268.437ZM325.023 205.089C320.632 205.623 316.805 205.89 313.542 205.89C310.338 205.89 307.816 205.059 305.977 203.398C304.197 201.677 303.307 198.74 303.307 194.587V173.939H299.035V162.903H304.019L304.82 154.715H318.259V162.903H326.18L325.557 173.939H318.17V191.65C318.17 192.896 318.763 193.519 319.95 193.519C320.069 193.519 321.908 193.43 325.468 193.252L325.023 205.089Z" fill="black"/>
</g>
<defs>
<clipPath id="clip0_2_2">
<rect width="349" height="227" fill="white"/>
</clipPath>
</defs>
</svg>
